<svg width="32" height="32" xmlns="http://www.w3.org/2000/svg" xmlns:xlink="http://www.w3.org/1999/xlink" xml:space="preserve" overflow="hidden"><g transform="translate(-1445 -375)"><path d="M7.01457 28.2561 0 30.0362 0 0 9.18322 0C12.8636 0 16.7912 1.82958 16.7912 8.51214 16.7912 14.4247 13.0119 16.5581 9.46578 17.1232L9.46578 7.15585C9.50958 5.841 8.48445 4.73705 7.16998 4.68344L7.01457 4.68344Z" fill-rule="evenodd" transform="matrix(1 0 0 1.04651 1445 375.283)"/><path d="M21.2274 9.72715 21.2274 13.57C21.2274 13.57 28.1289 11.4508 27.7051 15.2795 27.26 19.3837 24.053 20.1042 18.8185 20.2243L18.8185 24.5616C18.8185 24.5616 26.2146 24.5616 29.1461 21.7925 31.0032 19.9622 32.0251 17.4483 31.9717 14.8415 32.0494 13.7819 31.1876 8.97837 26.2499 9.89669L26.2499 9.71302 31.8163 4.21722 31.8163 0 18.8044 0 18.8044 4.18896 26.1369 4.18896Z" fill-rule="evenodd" transform="matrix(1 0 0 1.04651 1445 375.283)"/></g></svg>